# This file uses centimeters as units for non-parametric coordinates.

v 20.548624 -3.868521 -6.614054
v 20.331852 -3.868521 -6.938477
v 20.007428 -3.868521 -7.155250
v 19.624745 -3.866078 -7.231371
v 20.007428 -3.866078 -5.307491
v 20.331851 -3.868521 -5.524264
v 20.548624 -3.868521 -5.848688
v 20.624745 -3.868521 -6.231371
v 20.548624 13.732304 -6.614054
v 20.331852 13.732304 -6.938477
v 20.007428 13.732304 -7.155250
v 19.624745 13.732304 -7.231371
v 19.242062 13.732304 -7.155251
v 18.917638 13.732304 -6.938478
v 18.700865 13.732304 -6.614054
v 18.624745 13.732304 -6.231371
v 18.700865 13.732304 -5.848688
v 18.917638 13.732304 -5.524264
v 19.242061 13.732304 -5.307491
v 19.624745 13.732304 -5.231371
v 20.007428 13.732304 -5.307491
v 20.331851 13.732304 -5.524264
v 20.548624 13.732304 -5.848687
v 20.624745 13.732304 -6.231370
v 19.624745 13.732304 -6.231370
v 20.548624 11.946223 -6.614054
v 20.624745 11.946223 -6.231370
v 20.548624 11.946223 -5.848687
v 20.331851 11.946223 -5.524264
v 20.007428 11.946223 -5.307491
v 19.624745 11.946223 -7.231371
v 20.007428 11.946223 -7.155250
v 20.331852 11.946223 -6.938477
v -20.831241 11.946223 -5.231380
v -21.213920 11.946223 -5.307500
v -20.831241 13.732304 -5.231380
v -21.213920 13.732304 -5.307500
v -21.538345 11.946223 -5.524273
v -21.538345 13.732304 -5.524273
v -21.755115 11.946223 -5.848697
v -21.755115 13.732304 -5.848697
v -21.831238 11.946223 -6.231380
v -21.831238 13.732304 -6.231380
v -21.755115 11.946223 -6.614064
v -21.755115 13.732304 -6.614063
v -21.538349 11.946223 -6.938487
v -21.538349 13.732304 -6.938487
v -21.213924 11.946223 -7.155259
v -21.213924 13.732304 -7.155259
v -20.831241 11.946223 -7.231380
v -20.831241 13.732304 -7.231380
v -20.831249 11.946223 -7.155259
v -20.831260 11.946223 -6.938486
v -20.831222 11.946223 -6.614063
v -20.831249 11.946223 -6.231380
v -20.831222 11.946223 -5.848696
v -20.831257 11.946223 -5.524273
v -20.831245 11.946223 -5.307500
v -20.831245 13.732304 -5.307500
v -20.831257 13.732304 -5.524273
v -20.831222 13.732304 -5.848696
v -20.831249 13.732304 -6.231379
v -20.831222 13.732304 -6.614063
v -20.831260 13.732304 -6.938486
v -20.831249 13.732304 -7.155259
v -20.831245 -3.450592 -5.307518
v -20.831241 -3.450592 -5.231397
v -21.213920 -3.450592 -5.307518
v -20.831257 -3.450592 -5.524290
v -21.538345 -3.450592 -5.524290
v -20.831222 -3.450592 -5.848714
v -21.755115 -3.450592 -5.848714
v -20.831249 -3.450592 -6.231397
v -21.831238 -3.450592 -6.231397
v -20.831222 -3.450592 -6.614081
v -21.755115 -3.450592 -6.614081
v -20.831260 -3.450592 -6.938504
v -21.538349 -3.450592 -6.938504
v -20.831249 -3.450592 -7.155277
v -21.213924 -3.450592 -7.155277
v -20.831241 -3.450592 -7.231398
v 19.952759 11.946223 -5.582331
v 19.898090 11.946223 -5.857171
v 19.843421 11.946223 -6.132011
v 19.788752 11.946223 -6.406851
v 19.734083 11.946223 -6.681691
v 19.679414 11.946223 -6.956531
v 19.624745 11.946223 -7.231371
v 19.679414 11.946223 -6.956531
v 19.952759 11.946223 -5.582331
v 20.007428 11.946223 -5.307491
v 19.898090 11.946223 -5.857171
v 19.843421 11.946223 -6.132011
v 19.788752 11.946223 -6.406851
v 19.734083 11.946223 -6.681691
v 19.679414 -3.863635 -6.956531
v 19.952759 -3.863635 -5.582331
v 19.898090 -3.863635 -5.857171
v 19.843421 -3.863635 -6.132011
v 19.788752 -3.863635 -6.406851
v 19.734083 -3.863635 -6.681691
vt 0.375000 0.312500
vt 0.390625 0.312500
vt 0.406250 0.312500
vt 0.421875 0.312500
vt 0.562500 0.312500
vt 0.578125 0.312500
vt 0.593750 0.312500
vt 0.609375 0.312500
vt 0.625000 0.312500
vt 0.375000 0.688440
vt 0.390625 0.688440
vt 0.406250 0.688440
vt 0.421875 0.688440
vt 0.437500 0.688440
vt 0.453125 0.688440
vt 0.468750 0.688440
vt 0.484375 0.688440
vt 0.500000 0.688440
vt 0.515625 0.688440
vt 0.531250 0.688440
vt 0.546875 0.688440
vt 0.562500 0.688440
vt 0.578125 0.688440
vt 0.593750 0.688440
vt 0.609375 0.688440
vt 0.625000 0.688440
vt 0.644356 0.783956
vt 0.610485 0.733265
vt 0.559794 0.699394
vt 0.500000 0.687500
vt 0.440206 0.699394
vt 0.389515 0.733265
vt 0.355644 0.783956
vt 0.343750 0.843750
vt 0.355644 0.903544
vt 0.389515 0.954235
vt 0.440206 0.988106
vt 0.500000 1.000000
vt 0.559794 0.988106
vt 0.610485 0.954235
vt 0.644356 0.903544
vt 0.656250 0.843750
vt 0.500000 0.837500
vt 0.625000 0.650291
vt 0.375000 0.650291
vt 0.609375 0.650291
vt 0.593750 0.650291
vt 0.578125 0.650291
vt 0.562500 0.650291
vt 0.421875 0.650291
vt 0.406250 0.650291
vt 0.390625 0.650291
vt 0.531250 0.650291
vt 0.546875 0.650291
vt 0.546875 0.688440
vt 0.531250 0.688440
vt 0.515625 0.650291
vt 0.515625 0.688440
vt 0.500000 0.650291
vt 0.500000 0.688440
vt 0.484375 0.650291
vt 0.484375 0.688440
vt 0.468750 0.650291
vt 0.468750 0.688440
vt 0.453125 0.650291
vt 0.453125 0.688440
vt 0.437500 0.650291
vt 0.437500 0.688440
vt 0.421875 0.650291
vt 0.421875 0.688440
vt 0.437500 0.650291
vt 0.453125 0.650291
vt 0.468750 0.650291
vt 0.484375 0.650291
vt 0.500000 0.650291
vt 0.515625 0.650291
vt 0.531250 0.650291
vt 0.531250 0.688440
vt 0.515625 0.688440
vt 0.500000 0.688440
vt 0.484375 0.688440
vt 0.468750 0.688440
vt 0.453125 0.688440
vt 0.437500 0.688440
vt 0.531250 0.650291
vt 0.546875 0.650291
vt 0.531250 0.650291
vt 0.515625 0.650291
vt 0.515625 0.650291
vt 0.500000 0.650291
vt 0.500000 0.650291
vt 0.484375 0.650291
vt 0.484375 0.650291
vt 0.468750 0.650291
vt 0.468750 0.650291
vt 0.453125 0.650291
vt 0.453125 0.650291
vt 0.437500 0.650291
vt 0.437500 0.650291
vt 0.421875 0.650291
vt 1.000000 0.000000
vt 1.000000 1.000000
vt 1.000000 0.857143
vt 1.000000 0.714286
vt 1.000000 0.571429
vt 1.000000 0.428571
vt 1.000000 0.285714
vt 1.000000 0.142857
vt 0.000000 0.000000
vt 1.000000 0.000000
vt 1.000000 1.000000
vt 0.000000 1.000000
vt 0.000000 0.000000
vt 1.000000 0.000000
vt 1.000000 1.000000
vt 0.000000 1.000000
vt 0.000000 0.000000
vt 1.000000 0.000000
vt 1.000000 1.000000
vt 0.000000 1.000000
vt 0.000000 0.000000
vt 1.000000 0.000000
vt 1.000000 1.000000
vt 0.000000 1.000000
vt 0.000000 0.000000
vt 1.000000 0.000000
vt 1.000000 1.000000
vt 0.000000 1.000000
vt 0.000000 0.000000
vt 1.000000 0.000000
vt 1.000000 1.000000
vt 0.000000 1.000000
vt 0.000000 0.000000
vt 1.000000 0.000000
vt 1.000000 1.000000
vt 0.000000 1.000000
vt 0.000000 0.000000
vt 1.000000 0.000000
vt 1.000000 1.000000
vt 0.000000 1.000000
vt 0.000000 0.000000
vt 1.000000 0.000000
vt 1.000000 1.000000
vt 0.000000 1.000000
vt 0.000000 0.000000
vt 1.000000 0.000000
vt 1.000000 1.000000
vt 0.000000 1.000000
vt 0.000000 0.000000
vt 1.000000 0.000000
vt 1.000000 1.000000
vt 0.000000 1.000000
vt 0.000000 0.000000
vt 1.000000 0.000000
vt 1.000000 1.000000
vt 0.000000 1.000000
vt 0.000000 0.000000
vt 1.000000 0.000000
vt 1.000000 1.000000
vt 0.000000 1.000000
vt 0.000000 0.000000
vt 1.000000 0.000000
vt 1.000000 1.000000
vt 0.000000 1.000000
vn 0.923880 0.000000 -0.382683
vn 0.707107 0.000000 -0.707106
vn 0.707107 0.000000 -0.707106
vn 0.923880 0.000000 -0.382683
vn 0.382810 0.000000 -0.923827
vn 0.382690 0.000000 -0.923877
vn 0.195091 0.000000 -0.980785
vn 0.195091 0.000000 -0.980785
vn 0.555570 -0.000000 0.831470
vn 0.707203 -0.000000 0.707011
vn 0.707112 -0.000000 0.707102
vn 0.050162 -0.019549 0.998550
vn 0.923880 -0.000000 0.382684
vn 0.923879 -0.000000 0.382684
vn 1.000000 0.000000 -0.000000
vn 1.000000 -0.000000 0.000000
vn 0.000000 1.000000 0.000000
vn 0.000000 1.000000 0.000000
vn 0.000000 1.000000 -0.000001
vn 0.000000 1.000000 0.000000
vn 0.000000 1.000000 0.000000
vn 0.000000 1.000000 0.000000
vn 0.000000 1.000000 0.000000
vn 0.000000 1.000000 0.000000
vn 0.000000 1.000000 -0.000002
vn 0.000000 1.000000 0.000000
vn 0.000000 1.000000 0.000000
vn 0.000000 1.000000 -0.000002
vn 0.000000 1.000000 -0.000003
vn 0.000000 1.000000 -0.000003
vn 0.000000 1.000000 0.000000
vn 0.000000 1.000000 -0.000000
vn 0.000000 1.000000 -0.000000
vn 0.000000 1.000000 0.000002
vn 0.000000 1.000000 0.000000
vn 0.000000 1.000000 0.000000
vn 0.000000 1.000000 -0.000000
vn 0.000000 1.000000 0.000004
vn 0.000000 1.000000 0.000004
vn 0.000000 1.000000 -0.000004
vn 0.000000 1.000000 -0.000005
vn 0.000000 1.000000 -0.000005
vn 0.000000 1.000000 0.000000
vn 0.000000 1.000000 0.000000
vn 0.000000 1.000000 0.000000
vn 0.000000 1.000000 0.000001
vn 0.000000 1.000000 -0.000001
vn 0.000000 1.000000 -0.000002
vn 0.000000 1.000000 0.000000
vn 0.923880 0.000000 -0.382683
vn 1.000000 -0.000000 0.000000
vn 0.923879 -0.000000 0.382684
vn 0.707106 0.000000 0.707107
vn 0.007113 -0.020938 0.999755
vn -0.382685 -0.000000 0.923879
vn -0.195092 0.000000 0.980785
vn -0.195092 0.000000 0.980785
vn -0.382685 -0.000000 0.923879
vn -0.707108 -0.000001 0.707106
vn -0.707108 -0.000001 0.707106
vn -0.923880 0.000000 0.382683
vn -0.923880 0.000000 0.382683
vn -1.000000 0.000000 -0.000000
vn -1.000000 0.000000 0.000000
vn -0.923882 -0.000000 -0.382678
vn -0.923882 -0.000000 -0.382678
vn -0.707110 0.000000 -0.707104
vn -0.707110 0.000000 -0.707104
vn -0.382684 0.000000 -0.923880
vn -0.382684 0.000000 -0.923880
vn -0.195092 0.000000 -0.980785
vn -0.195092 0.000000 -0.980785
vn 0.195091 0.000000 -0.980785
vn 0.382684 0.000000 -0.923879
vn 0.707107 0.000000 -0.707106
vn 0.000000 -1.000000 0.000006
vn 0.000000 -1.000000 0.000006
vn 0.000000 -1.000000 0.000006
vn 0.001863 -0.021105 0.999775
vn 0.001863 -0.021105 0.999776
vn 0.001863 -0.021105 0.999776
vn 0.000000 1.000000 0.000025
vn 0.000000 -1.000000 0.000000
vn 0.000000 -1.000000 0.000000
vn 0.000000 -1.000000 0.000000
vn 0.000000 -1.000000 0.000000
vn 0.000000 1.000000 0.000000
vn 0.000000 1.000000 0.000000
vn 0.000000 -1.000000 0.000000
vn 0.000000 -1.000000 0.000000
vn 0.000000 -1.000000 0.000000
vn 0.000000 -1.000000 0.000000
vn 0.000000 1.000000 0.000000
vn 0.000000 1.000000 0.000000
vn 0.000000 -1.000000 0.000000
vn 0.000000 -1.000000 0.000000
vn 0.000000 -1.000000 0.000000
vn 0.000000 -1.000000 0.000000
vn 0.000000 1.000000 0.000004
vn 0.000000 1.000000 0.000004
vn 0.000000 -1.000000 0.000000
vn 0.000000 -1.000000 0.000000
vn 0.000000 -1.000000 0.000000
vn 0.000000 -1.000000 0.000000
vn 0.000000 1.000000 -0.000004
vn 0.000000 1.000000 -0.000004
vn 0.000000 -1.000000 0.000000
vn 0.000000 -1.000000 0.000000
vn 0.000000 -1.000000 0.000000
vn 0.000000 -1.000000 0.000000
vn 0.000000 1.000000 0.000006
vn 0.000000 1.000000 0.000006
vn 0.000000 -1.000000 0.000000
vn 0.000000 -1.000000 0.000000
vn 0.000000 -1.000000 0.000000
vn 0.000000 -1.000000 0.000000
vn 0.000000 1.000000 0.000000
vn 0.000000 1.000000 0.000000
vn 0.000000 -1.000000 0.000000
vn 0.000000 -1.000000 0.000000
vn 0.000000 -1.000000 0.000000
vn 0.000000 1.000000 0.000000
vn 0.000000 0.000000 -1.000000
vn 0.000000 0.000000 -1.000000
vn 0.000000 0.000000 -1.000000
vn 0.000000 0.000000 -1.000000
vn 0.000000 -1.000000 0.000000
vn 0.000000 -1.000000 0.000000
vn 0.000000 -1.000000 0.000000
vn 1.000000 -0.000000 -0.000050
vn 1.000000 -0.000000 -0.000050
vn 1.000000 -0.000000 -0.000050
vn 1.000000 -0.000000 -0.000050
vn -0.195092 -0.000001 0.980785
vn -0.195092 -0.000001 0.980785
vn -0.195092 -0.000001 0.980785
vn -0.195092 -0.000001 0.980785
vn 1.000000 0.000000 -0.000053
vn 1.000000 0.000000 -0.000053
vn 1.000000 0.000000 -0.000053
vn 1.000000 0.000000 -0.000053
vn -0.555569 -0.000001 0.831471
vn -0.555569 -0.000001 0.831470
vn -0.555569 -0.000001 0.831471
vn -0.555569 -0.000001 0.831470
vn 1.000000 0.000000 0.000106
vn 1.000000 0.000000 0.000106
vn 1.000000 0.000000 0.000106
vn 1.000000 0.000000 0.000106
vn -0.831473 -0.000001 0.555565
vn -0.831473 -0.000001 0.555565
vn -0.831473 -0.000001 0.555565
vn -0.831473 -0.000001 0.555565
vn 1.000000 -0.000000 -0.000070
vn 1.000000 -0.000000 -0.000070
vn 1.000000 -0.000000 -0.000070
vn 1.000000 -0.000000 -0.000070
vn -0.980784 -0.000000 0.195095
vn -0.980784 -0.000000 0.195095
vn -0.980784 -0.000000 0.195095
vn -0.980784 -0.000000 0.195095
vn 1.000000 0.000000 0.000070
vn 1.000000 0.000000 0.000070
vn 1.000000 0.000000 0.000070
vn 1.000000 0.000000 0.000070
vn -0.980784 0.000000 -0.195095
vn -0.980784 0.000000 -0.195095
vn -0.980784 0.000000 -0.195095
vn -0.980784 0.000000 -0.195095
vn 1.000000 0.000000 -0.000118
vn 1.000000 0.000000 -0.000118
vn 1.000000 0.000000 -0.000118
vn 1.000000 0.000000 -0.000118
vn -0.831477 0.000001 -0.555559
vn -0.831477 0.000001 -0.555559
vn -0.831477 0.000001 -0.555559
vn -0.831477 0.000001 -0.555559
vn 1.000000 0.000000 0.000053
vn 1.000000 0.000000 0.000053
vn 1.000000 0.000000 0.000053
vn 1.000000 0.000000 0.000053
vn -0.555568 0.000001 -0.831471
vn -0.555568 0.000001 -0.831471
vn -0.555568 0.000001 -0.831471
vn -0.555568 0.000001 -0.831471
vn 1.000000 -0.000000 0.000100
vn 1.000000 -0.000000 0.000100
vn 1.000000 -0.000000 0.000100
vn 1.000000 -0.000000 0.000100
vn -0.195092 0.000001 -0.980785
vn -0.195092 0.000001 -0.980785
vn -0.195092 0.000001 -0.980785
vn -0.195092 0.000001 -0.980785
vn 0.000000 -1.000000 -0.000002
vn 0.000000 -1.000000 -0.000003
vn 0.000000 -1.000000 -0.000006
vn 0.000000 -1.000000 -0.000006
vn 0.000000 -1.000000 -0.000000
vn 0.000000 -1.000000 -0.000000
vn 0.000000 -1.000000 -0.000000
vn 0.000000 -1.000000 -0.000000
vn 0.000000 -1.000000 0.000002
vn 0.000000 -1.000000 0.000002
vn 0.000000 -1.000000 0.000000
vn 0.000000 -1.000000 0.000001
vn 0.000000 -1.000000 -0.000001
vn 0.000000 -1.000000 -0.000002
vn 0.000000 -1.000000 0.000000
vn 0.000000 -1.000000 0.000000
vn 0.000000 0.000000 0.000000
vn 0.000000 0.000000 0.000000
vn 0.000000 0.000000 0.000000
vn 0.000000 0.000000 0.000000
vn 0.000000 0.000000 0.000000
vn 0.000000 0.000000 0.000000
vn 0.000000 0.000000 0.000000
vn 0.000000 0.000000 0.000000
vn 0.000000 0.000000 0.000000
vn 0.000000 0.000000 0.000000
vn 0.000000 0.000000 0.000000
vn 0.000000 0.000000 0.000000
vn 0.000000 0.000000 0.000000
vn 0.000000 0.000000 0.000000
vn 0.000000 0.000000 0.000000
vn 0.000000 0.000000 0.000000
vn 0.000000 0.000000 0.000000
vn 0.000000 0.000000 0.000000
vn 0.000000 0.000000 0.000000
vn 0.000000 0.000000 0.000000
vn 0.000000 0.000000 0.000000
vn 0.000000 0.000000 0.000000
vn 0.000000 0.000000 0.000000
vn 0.000000 0.000000 0.000000
vn 0.000000 0.000000 0.000000
vn 0.000000 0.000000 0.000000
vn 0.000000 0.000000 0.000000
vn 0.000000 0.000000 0.000000
vn -0.980785 0.000000 0.195090
vn -0.980785 0.000000 0.195090
vn -0.980785 0.000000 0.195090
vn -0.980785 0.000000 0.195090
vn -0.980785 0.000000 0.195090
vn -0.980785 0.000000 0.195090
vn -0.980785 0.000000 0.195090
vn -0.980785 0.000000 0.195090
vn -0.980785 0.000000 0.195090
vn -0.980785 0.000000 0.195090
vn -0.980785 0.000000 0.195090
vn -0.980785 0.000000 0.195090
vn -0.980785 0.000000 0.195090
vn -0.980785 0.000000 0.195090
vn -0.980785 0.000000 0.195090
vn -0.980785 0.000000 0.195090
vn -0.980785 0.000000 0.195091
vn -0.980785 0.000000 0.195091
vn -0.980785 0.000000 0.195091
vn -0.980785 0.000000 0.195091
vn -0.980785 0.000000 0.195090
vn -0.980785 0.000000 0.195090
vn -0.980785 0.000000 0.195090
vn -0.980785 0.000000 0.195090
vn -0.980785 0.000000 0.195090
vn -0.980785 0.000000 0.195090
vn -0.980785 0.000000 0.195090
vn -0.980785 0.000000 0.195090
vn -0.009762 -0.999947 -0.003204
vn -0.009599 -0.999950 -0.002948
vn -0.011888 -0.999908 -0.006523
vn -0.007740 -0.999950 0.006397
vn -0.007793 -0.999947 0.006696
vn -0.008487 -0.999908 0.010576
vn -0.006622 -0.999971 0.003669
vn -0.006712 -0.999970 0.003864
vn -0.006156 -0.999979 0.001899
vn -0.006159 -0.999979 0.001937
vn -0.006414 -0.999979 0.000602
vn -0.006431 -0.999979 0.000568
vn -0.007522 -0.999971 -0.000855
vn -0.007680 -0.999970 -0.001001
f 1/1/1 2/2/2 33/52/3 26/45/4
f 2/2/2 3/3/5 32/51/6 33/52/3
f 3/3/5 4/4/7 31/50/8 32/51/6
f 5/5/9 6/6/10 29/48/11 30/49/12
f 6/6/10 7/7/13 28/47/14 29/48/11
f 7/7/13 8/8/15 27/46/16 28/47/14
f 8/8/15 1/9/1 26/44/4 27/46/16
f 9/41/17 10/40/18 25/43/19
f 10/40/18 11/39/20 25/43/19
f 11/39/20 12/38/21 25/43/19
f 13/37/22 25/43/19 12/13/21 51/70/23 65/84/24
f 14/36/25 25/43/19 13/14/22 65/84/26 64/83/27
f 15/35/28 25/43/19 14/15/25 64/83/29 63/82/30
f 16/34/31 25/43/19 15/16/28 63/82/32 62/81/33
f 17/33/34 25/43/19 16/17/31 62/81/35 61/80/36
f 18/32/37 25/43/19 17/18/34 61/80/38 60/79/39
f 19/31/40 25/43/19 18/19/37 60/79/41 59/78/42
f 20/30/43 25/43/19 19/20/40 59/78/44 36/55/45
f 20/30/43 21/29/46 25/43/19
f 21/29/46 22/28/47 25/43/19
f 22/28/47 23/27/48 25/43/19
f 23/27/48 24/42/49 25/43/19
f 24/42/49 9/41/17 25/43/19
f 27/46/16 26/44/4 9/26/50 24/25/51
f 28/47/14 27/46/16 24/25/51 23/24/52
f 29/48/11 28/47/14 23/24/52 22/23/53
f 30/49/12 29/48/11 22/23/53 21/22/54
f 35/53/55 34/54/56 36/55/57 37/56/58
f 38/57/59 35/53/55 37/56/58 39/58/60
f 40/59/61 38/57/59 39/58/60 41/60/62
f 42/61/63 40/59/61 41/60/62 43/62/64
f 44/63/65 42/61/63 43/62/64 45/64/66
f 46/65/67 44/63/65 45/64/66 47/66/68
f 48/67/69 46/65/67 47/66/68 49/68/70
f 50/69/71 48/67/69 49/68/70 51/70/72
f 32/51/6 31/50/8 12/13/73 11/12/74
f 33/52/3 32/51/6 11/12/74 10/11/75
f 26/45/4 33/52/3 10/11/75 9/10/50
f 66/85/76 67/86/77 68/87/78
f 20/21/79 36/55/80 34/54/81 30/49/12 21/22/54
f 36/55/45 59/78/44 37/56/82
f 69/88/83 66/85/84 68/87/85 70/89/86
f 59/78/42 60/79/41 39/58/87 37/56/88
f 71/90/89 69/88/90 70/89/91 72/91/92
f 60/79/39 61/80/38 41/60/93 39/58/94
f 73/92/95 71/90/96 72/91/97 74/93/98
f 61/80/36 62/81/35 43/62/99 41/60/100
f 75/94/101 73/92/102 74/93/103 76/95/104
f 62/81/33 63/82/32 45/64/105 43/62/106
f 77/96/107 75/94/108 76/95/109 78/97/110
f 63/82/30 64/83/29 47/66/111 45/64/112
f 79/98/113 77/96/114 78/97/115 80/99/116
f 64/83/27 65/84/26 49/68/117 47/66/118
f 81/100/119 79/98/120 80/99/121
f 65/84/24 51/70/23 49/68/122
f 12/13/123 31/50/124 50/69/125 51/70/126
f 31/50/127 52/71/128 50/69/129
f 58/77/130 34/54/131 67/86/132 66/85/133
f 34/54/134 35/53/135 68/87/136 67/86/137
f 57/76/138 58/77/139 66/85/140 69/88/141
f 35/53/142 38/57/143 70/89/144 68/87/145
f 56/75/146 57/76/147 69/88/148 71/90/149
f 38/57/150 40/59/151 72/91/152 70/89/153
f 55/74/154 56/75/155 71/90/156 73/92/157
f 40/59/158 42/61/159 74/93/160 72/91/161
f 54/73/162 55/74/163 73/92/164 75/94/165
f 42/61/166 44/63/167 76/95/168 74/93/169
f 53/72/170 54/73/171 75/94/172 77/96/173
f 44/63/174 46/65/175 78/97/176 76/95/177
f 52/71/178 53/72/179 77/96/180 79/98/181
f 46/65/182 48/67/183 80/99/184 78/97/185
f 50/69/186 52/71/187 79/98/188 81/100/189
f 48/67/190 50/69/191 81/100/192 80/99/193
f 58/77/194 82/103/195 30/102/196 34/54/197
f 57/76/198 83/104/199 82/103/195 58/77/194
f 56/75/200 84/105/201 83/104/199 57/76/198
f 55/74/202 85/106/203 84/105/201 56/75/200
f 54/73/204 86/107/205 85/106/203 55/74/202
f 53/72/206 87/108/207 86/107/205 54/73/204
f 31/101/208 87/108/207 53/72/206 52/71/209
f 87/109/210 31/110/211 88/111/212 89/112/213
f 30/113/214 82/114/215 90/115/216 91/116/217
f 82/117/218 83/118/219 92/119/220 90/120/221
f 83/121/222 84/122/223 93/123/224 92/124/225
f 84/125/226 85/126/227 94/127/228 93/128/229
f 85/129/230 86/130/231 95/131/232 94/132/233
f 86/133/234 87/134/235 89/135/236 95/136/237
f 31/137/238 4/140/239 96/139/240 87/138/241
f 82/141/242 97/144/243 5/143/244 30/142/245
f 83/145/246 98/148/247 97/147/248 82/146/249
f 84/149/250 99/152/251 98/151/252 83/150/253
f 85/153/254 100/156/255 99/155/256 84/154/257
f 86/157/258 101/160/259 100/159/260 85/158/261
f 87/161/262 96/164/263 101/163/264 86/162/265
f 97/147/266 6/6/267 5/143/268
f 3/3/269 96/139/270 4/4/271
f 2/2/272 101/163/273 96/139/270 3/3/269
f 2/2/272 1/9/274 100/159/275 101/163/273
f 100/159/275 1/9/274 8/8/276 99/155/277
f 99/155/277 8/8/276 7/7/278 98/151/279
f 98/151/279 7/7/278 6/6/267 97/147/266
